<?xml version="1.0" encoding="UTF-8"?>
<svg width="61px" height="61px" viewBox="0 0 61 61" version="1.1" xmlns="http://www.w3.org/2000/svg" xmlns:xlink="http://www.w3.org/1999/xlink">
    <!-- Generator: Sketch 40.3 (33839) - http://www.bohemiancoding.com/sketch -->
    <title>icon</title>
    <desc>Created with Sketch.</desc>
    <defs></defs>
    <g id="top" stroke="none" stroke-width="1" fill="none" fill-rule="evenodd">
        <g id="pattern1" transform="translate(-567.000000, -3951.000000)" fill="#F16767">
            <g id="icon" transform="translate(567.000000, 3951.000000)">
                <path d="M6.51170275,19.7661172 C7.00658692,19.9853235 7.55308478,20.1091964 8.12933641,20.1091964 C10.3402239,20.1091964 12.1321296,18.3172906 12.1321296,16.1064032 C12.1321296,15.9764581 12.124843,15.8483347 12.1126986,15.7214258 C13.1176474,15.3121596 14.1754244,14.9970125 15.2884584,14.8154538 C15.8009519,14.7322647 16.218112,14.3582172 16.3577725,13.8578681 C18.1041368,7.57557158 23.8806192,3.1884082 30.4051964,3.1884082 C31.8849911,3.1884082 33.3222805,3.42461672 34.6867035,3.84724173 C34.5093953,4.3573064 34.4085968,4.90258982 34.4085968,5.47276926 C34.4085968,8.21375963 36.629807,10.4349698 39.3707974,10.4349698 C40.4929397,10.4349698 41.5246062,10.0584935 42.3558901,9.43002098 C43.2831148,10.753153 44.0032776,12.2408416 44.4526203,13.8578681 C44.5922808,14.3582172 45.0094409,14.7322647 45.5225416,14.8154538 C47.0326974,15.061985 48.4469124,15.5422959 49.749399,16.1980934 C48.7420212,16.4707351 47.9963553,17.3821721 47.9963553,18.475775 C47.9963553,19.7843338 49.0571683,20.8451468 50.3657271,20.8451468 C51.6742859,20.8451468 52.7350989,19.7843338 52.7350989,18.475775 C52.7350989,18.3701187 52.7174896,18.2693202 52.7041307,18.1673073 C55.8137035,20.8524335 57.7404121,24.8139357 57.7404121,29.2053496 C57.7404121,29.529605 57.726446,29.8508243 57.7051934,30.1696147 C57.6997284,30.2540183 57.693049,30.3384219 57.6857623,30.4228254 C57.662688,30.7003249 57.6329342,30.9760027 57.5946793,31.2486444 C57.5886071,31.2911498 57.5843566,31.3342624 57.5782844,31.3767678 C57.5315285,31.6870571 57.4732354,31.9930959 57.4076556,32.2967059 C57.3918679,32.3707867 57.3736513,32.4448675 57.3560419,32.5183411 C57.2971416,32.7727662 57.2315619,33.0247625 57.1586955,33.2737226 C57.1423006,33.3308013 57.1271201,33.3878799 57.1101179,33.4443514 C57.0202494,33.7400674 56.9206653,34.0321402 56.8125802,34.3199624 C56.7913275,34.3758266 56.7682531,34.4310836 56.7463932,34.4869478 C56.6510597,34.7322647 56.5484396,34.9739382 56.4403544,35.2125756 C56.414244,35.2696542 56.389348,35.3273401 56.3626303,35.3838115 C56.2302564,35.6655616 56.0905958,35.943061 55.9412197,36.2144883 C55.9266464,36.2405987 55.9114659,36.2654948 55.8968927,36.290998 C55.7578393,36.5399581 55.6108921,36.7840605 55.4578727,37.0233051 C55.4262973,37.0730972 55.3947218,37.1234964 55.361932,37.1732884 C55.0182455,37.6979264 54.641162,38.19949 54.2349319,38.6743359 C54.2015349,38.7125907 54.1681378,38.7508456 54.1353479,38.7891004 C53.7175806,39.2663752 53.2700596,39.7169324 52.7946065,40.1365213 C52.7660671,40.1620245 52.7363134,40.1869205 52.707774,40.2118165 C52.47278,40.4164496 52.2323209,40.6144033 51.983968,40.8032487 C51.9791102,40.806892 51.9748597,40.8111425 51.9700019,40.8147858 C51.707683,41.0139539 51.4386846,41.2040138 51.1630068,41.3855725 C51.1447902,41.3977169 51.1253591,41.4098613 51.1065353,41.4220057 C50.8466452,41.5920272 50.5806829,41.7535477 50.3098629,41.9065671 C50.2910391,41.9174971 50.2728225,41.928427 50.2539986,41.9387498 C49.9631403,42.1014847 49.6674243,42.2551113 49.3650288,42.397808 C47.4802184,43.2879923 45.3762016,43.7889486 43.1568131,43.7889486 C40.999361,43.7889486 38.8886648,43.3086377 36.9564913,42.397808 C36.6753485,42.265434 36.397849,42.1251663 36.1246001,41.9757902 C35.8483151,41.8227708 35.5750661,41.6636792 35.3078894,41.4930504 C35.0905047,41.3539971 34.8409374,41.2829523 34.5895483,41.2829523 C34.4237773,41.2829523 34.2573991,41.3133133 34.0995219,41.375857 C31.7173985,42.3194766 29.0929943,42.3194766 26.7114781,41.375857 C26.3125346,41.218587 25.863192,41.2616996 25.5025034,41.4930504 C25.2353266,41.6636792 24.9626849,41.8227708 24.6863999,41.975183 C24.413151,42.124559 24.1356515,42.265434 23.8551159,42.397808 C21.9223352,43.3080305 19.811639,43.7889486 17.6535797,43.7889486 C15.4347984,43.7889486 13.3307816,43.2885995 11.4459712,42.397808 C11.1435757,42.2551113 10.8472524,42.1014847 10.5563941,41.9387498 C10.5381775,41.928427 10.5205682,41.9174971 10.5023516,41.9077816 C10.2303171,41.7535477 9.96374756,41.59142 9.70325025,41.4213985 C9.68503366,41.4092541 9.66620984,41.3977169 9.64799324,41.3861797 C9.37231544,41.2040138 9.10270982,41.0139539 8.84039085,40.8141786 C8.83614031,40.8111425 8.83188977,40.8074992 8.82703202,40.8038559 C8.5786791,40.6144033 8.33761282,40.4158424 8.10201152,40.2112093 C8.07407941,40.1869205 8.04493286,40.1620245 8.01700074,40.1371285 C7.54094039,39.7175396 7.09281214,39.2663752 6.67504489,38.7884932 C6.64225502,38.7508456 6.60946515,38.713198 6.57667527,38.6749431 C6.16923076,38.19949 5.79214724,37.6979264 5.4484608,37.1726812 C5.41627815,37.1234964 5.38470272,37.0737044 5.35312729,37.0239123 C5.20010789,36.7840605 5.05316069,36.5399581 4.91350012,36.290998 C4.89953407,36.2654948 4.88374635,36.2405987 4.86978029,36.2144883 C4.72040421,35.943061 4.58074365,35.6661688 4.44836972,35.3844188 C4.42165205,35.3273401 4.39614881,35.2696542 4.37064558,35.2125756 C4.26195323,34.9733309 4.15933308,34.7310502 4.06339234,34.4851262 C4.04213965,34.4304764 4.01967251,34.3758266 3.99841982,34.3205696 C3.89033468,34.0327474 3.79075063,33.7400674 3.70027487,33.4437441 C3.68327272,33.3878799 3.66869944,33.3308013 3.65230451,33.2743298 C3.58004534,33.0253697 3.51385838,32.7739807 3.45495806,32.5195555 C3.43734868,32.4448675 3.41913209,32.3707867 3.40334437,32.2960986 C3.33715741,31.9930959 3.27947152,31.6870571 3.23271559,31.3767678 C3.22664339,31.3342624 3.22239286,31.2911498 3.21632066,31.2486444 C3.17806581,30.9760027 3.14831204,30.7003249 3.12523768,30.4228254 C3.11795104,30.3384219 3.11127162,30.2540183 3.10580665,30.1696147 C3.08455395,29.8508243 3.0705879,29.529605 3.0705879,29.2053496 C3.0705879,25.6209309 4.35000011,22.3188694 6.51170275,19.7661172 M54.4049535,42.2648268 C55.2338086,41.5501291 55.9934406,40.7583144 56.6741341,39.9003127 C56.6984229,39.8693445 56.7227116,39.8383763 56.7470004,39.8074081 C56.9625635,39.5317303 57.1714471,39.2505875 57.3706152,38.9621581 C57.3730441,38.9585148 57.375473,38.9548715 57.3779019,38.9512281 C57.585571,38.6488327 57.7841319,38.340365 57.9723701,38.0246107 C57.9851217,38.003358 57.9972661,37.9808908 58.0100177,37.9596381 C58.1733599,37.6833531 58.3282009,37.4016031 58.4763626,37.1162098 C58.507938,37.0548806 58.5395134,36.9941586 58.5704816,36.9328294 C58.7174288,36.6407566 58.8576966,36.3450406 58.9882489,36.0444667 C58.9973572,36.0238213 59.0070727,36.0043902 59.0155738,35.9837448 C59.1546271,35.6600966 59.2827505,35.3303762 59.4023728,34.9970125 C59.4254472,34.9314328 59.4466999,34.8646386 59.469167,34.7990588 C59.56025,34.5337038 59.6452608,34.2653126 59.7235921,33.9944925 C59.7497026,33.9064457 59.7752058,33.8177916 59.7994946,33.7291375 C59.8838982,33.4188481 59.9610151,33.1055227 60.0284165,32.7885539 C60.0344887,32.7624435 60.0411681,32.736333 60.0466331,32.7096154 C60.1176778,32.3677506 60.1759709,32.0210281 60.2263701,31.6724839 C60.239729,31.5783648 60.2506589,31.4836385 60.2621961,31.3895194 C60.2962004,31.1241643 60.3235253,30.8569876 60.3453852,30.5885964 C60.3532791,30.4853691 60.3623874,30.3827489 60.3684596,30.2795215 C60.3903195,29.9242979 60.4055,29.5666454 60.4055,29.2053496 C60.4055,20.9908796 54.7225295,14.0272824 46.7758434,12.3404257 C46.1485853,10.4501503 45.2001079,8.72625318 44.015422,7.20577469 C44.217019,6.66595625 44.332998,6.08363242 44.332998,5.47276926 C44.332998,2.7323861 42.1111805,0.510568692 39.3707974,0.510568692 C38.2091858,0.510568692 37.1429078,0.913155448 36.2976578,1.5817045 C34.4432084,0.902832711 32.4582067,0.523927528 30.4051964,0.523927528 C22.9697894,0.523927528 16.3553436,5.34160977 14.0351566,12.3404257 C12.9719147,12.5657043 11.9529998,12.8923885 10.9790191,13.2974042 C10.2533914,12.5608465 9.24540649,12.10361 8.12933641,12.10361 C5.91905618,12.10361 4.1265432,13.8961229 4.1265432,16.1064032 C4.1265432,16.7694872 4.29049256,17.3937092 4.57588589,17.9444576 C1.96484056,20.978128 0.4055,24.9165559 0.4055,29.2053496 C0.4055,29.5666454 0.420073276,29.9242979 0.44254041,30.2795215 C0.448612609,30.3827489 0.457720907,30.4853691 0.465614765,30.5885964 C0.487474679,30.8569876 0.514799572,31.1241643 0.548803883,31.3895194 C0.56034106,31.4836385 0.571271017,31.5783648 0.584629854,31.6724839 C0.635029101,32.0210281 0.692714986,32.3671434 0.763759708,32.7090081 C0.769831906,32.736333 0.777118544,32.7636579 0.782583523,32.7909828 C0.849984926,33.1073444 0.927101846,33.4200626 1.0115054,33.7297447 C1.0357942,33.8183988 1.06129743,33.9058384 1.08680066,33.9932781 C1.16513202,34.2647054 1.2501428,34.5330965 1.341833,34.7990588 C1.36430013,34.8652458 1.38555283,34.9314328 1.40862718,34.9970125 C1.52764227,35.3303762 1.65637288,35.6594894 1.794819,35.9831375 C1.8039273,36.0043902 1.81425004,36.0250357 1.82335834,36.0462884 C1.9539106,36.346255 2.09357117,36.6419711 2.24051837,36.9328294 C2.27148658,36.9941586 2.30245479,37.0548806 2.33403022,37.1156025 C2.48279909,37.4022103 2.63824737,37.6845675 2.80219672,37.9614598 C2.81434112,37.9821053 2.82527108,38.003358 2.83802269,38.0240034 C3.02626085,38.3397577 3.22482174,38.6488327 3.43249092,38.9512281 C3.4349198,38.9548715 3.4379559,38.9585148 3.44038478,38.9621581 C3.63955289,39.2505875 3.84843652,39.5317303 4.06399956,39.8074081 C4.08828835,39.8383763 4.11196993,39.8693445 4.13625872,39.9003127 C4.81695217,40.7583144 5.57658419,41.5495218 6.40543928,42.2648268 C6.41454758,42.2727207 6.42365587,42.2806145 6.43337139,42.2885084 C7.27922863,43.0153505 8.19491616,43.6608252 9.17071845,44.2140025 L9.17071845,44.2146097 L9.17132567,44.2146097 L9.17071845,44.2146097 L13.0405305,60.8354313 L47.7698623,60.8354313 L51.6396743,44.2146097 L51.6396743,44.2146097 L51.6396743,44.2146097 L51.6396743,44.2146097 C52.6154766,43.6608252 53.5317714,43.0153505 54.3776286,42.2885084 C54.3867369,42.2806145 54.3958452,42.2727207 54.4049535,42.2648268 M30.4051964,25.8717127 C33.5876356,25.8717127 36.1671055,23.2916356 36.1671055,20.1091964 C36.1671055,16.9273644 33.5876356,14.3472873 30.4051964,14.3472873 C27.2227572,14.3472873 24.6432873,16.9273644 24.6432873,20.1091964 C24.6432873,23.2916356 27.2227572,25.8717127 30.4051964,25.8717127" id="Fill-1"></path>
            </g>
        </g>
    </g>
</svg>